# xmcd CD database file
# Copyright (C) 1993-1998 Ti Kan
# 
# Track frame offsets:
#     182
#     11632
#     27535
#     45432
#     57015
#     69357
#     81680
#     99742
#     109840
#     122410
#     133690
#     146752
#     159452
#     177672
# 
# Disc length: 2536 seconds
# 
# Revision: 1
# Processed by: cddbd v1.4b41PL1 Copyright (c) Steve Scherf et al.
# Submitted via: DiscPlay 4.0.4
# 
DISCID=c509e60e
DTITLE=John Lee Hooker - The Boogie Man
DYEAR=1900
DGENRE=
TTITLE0=Boom Boon
TTITLE1=Dirty Groundhog
TTITLE2=I'm Goin' Home
TTITLE3=I Love You Honey
TTITLE4=I'm In The Mood
TTITLE5=Crawling Black Spider
TTITLE6=House Rent Boogie
TTITLE7=Dimples
TTITLE8=Mambo Chillun
TTITLE9=This Is Hip
TTITLE10=I'm So Excited
TTITLE11=Hobo Blues
TTITLE12=Loudella
TTITLE13=She Shot Me Down
EXTD=
EXTT0=
EXTT1=
EXTT2=
EXTT3=
EXTT4=
EXTT5=
EXTT6=
EXTT7=
EXTT8=
EXTT9=
EXTT10=
EXTT11=
EXTT12=
EXTT13=
PLAYORDER=
